<?xml version="1.0" encoding="utf-8"?>
<!-- Generator: Adobe Illustrator 27.8.0, SVG Export Plug-In . SVG Version: 6.00 Build 0)  -->
<svg version="1.1" id="Logo_00000163758079916589714800000014038276262078240175_"
	 xmlns="http://www.w3.org/2000/svg" xmlns:xlink="http://www.w3.org/1999/xlink" x="0px" y="0px" viewBox="0 0 5075.9 1472.1"
	 style="enable-background:new 0 0 5075.9 1472.1;" xml:space="preserve">
<style type="text/css">
	.st0{fill:#FFFFFF;}
	.st1{fill:#FFC600;}
</style>
<g id="G_PARTHASARATHY">
	<path id="G" class="st0" d="M1659.1,1051h48.6v93.2c-25.3,19-60.1,29.2-92.9,29.2c-72.2,0-125.4-49.6-125.4-118.9
		s53.2-118.9,126.4-118.9c40.4,0,73.9,13.8,96.2,39.7l-34.1,31.5c-16.7-17.7-36.1-25.9-59.4-25.9c-44.7,0-75.2,29.9-75.2,73.5
		c0,43,30.5,73.5,74.5,73.5c14.4,0,27.9-2.6,41.4-9.9V1051z"/>
	<path id="P" class="st0" d="M2082,1023.1c0,51.2-38.4,83.1-99.8,83.1h-46.3v63.4h-53.2V939.7h99.5
		C2043.6,939.7,2082,971.6,2082,1023.1z M2028.1,1023.1c0-25.3-16.4-40.1-48.9-40.1h-43.3v79.8h43.3
		C2011.7,1062.9,2028.1,1048.1,2028.1,1023.1z"/>
	<path id="A_00000126319440430973323410000004399271999346631352_" class="st0" d="M2287.2,1068.8v100.8h-47.9v-22
		c-9.5,16.1-27.9,24.6-53.8,24.6c-41.4,0-66-23-66-53.5c0-31.2,22-52.9,75.8-52.9h40.7c0-22-13.1-34.8-40.7-34.8
		c-18.7,0-38.1,6.2-50.9,16.4l-18.4-35.8c19.4-13.8,47.9-21.3,76.2-21.3C2256,990.3,2287.2,1015.3,2287.2,1068.8z M2236,1113.8
		v-18.1h-35.1c-24,0-31.5,8.9-31.5,20.7c0,12.8,10.8,21.3,28.9,21.3C2215.3,1137.7,2230.1,1129.8,2236,1113.8z"/>
	<path id="R_00000111167139400990485770000006563718531876091275_" class="st0" d="M2459.6,990.3v47.3c-4.3-0.3-7.6-0.7-11.5-0.7
		c-28.2,0-47,15.4-47,49.3v83.4h-51.2V992.9h48.9v23.3C2411.3,999.2,2432.3,990.3,2459.6,990.3z"/>
	<path id="T_00000165946463033366500740000010982146313400641204_" class="st0" d="M2626.7,1161c-10.5,7.6-25.9,11.2-41.7,11.2
		c-41.7,0-66-21.3-66-63.4v-72.6h-27.3v-39.4h27.3v-43h51.2v43h44v39.4h-44v71.9c0,15.1,8.2,23.3,22,23.3c7.6,0,15.1-2.3,20.7-6.6
		L2626.7,1161z"/>
	<path id="H_00000111186880000873771000000018316753117324712618_" class="st0" d="M2852.6,1068.4v101.1h-51.2v-93.2
		c0-28.6-13.1-41.7-35.8-41.7c-24.6,0-42.4,15.1-42.4,47.6v87.3H2672V926h51.2v85.4c13.8-13.8,33.5-21,56.1-21
		C2821,990.3,2852.6,1014.6,2852.6,1068.4z"/>
	<path id="A_00000080175582401275401730000011610955371556513434_" class="st0" d="M3071.5,1068.8v100.8h-47.9v-22
		c-9.5,16.1-27.9,24.6-53.8,24.6c-41.4,0-66-23-66-53.5c0-31.2,22-52.9,75.8-52.9h40.7c0-22-13.1-34.8-40.7-34.8
		c-18.7,0-38.1,6.2-50.9,16.4l-18.4-35.8c19.4-13.8,47.9-21.3,76.2-21.3C3040.4,990.3,3071.5,1015.3,3071.5,1068.8z M3020.3,1113.8
		v-18.1h-35.1c-24,0-31.5,8.9-31.5,20.7c0,12.8,10.8,21.3,28.9,21.3C2999.6,1137.7,3014.4,1129.8,3020.3,1113.8z"/>
	<path id="S" class="st0" d="M3117.2,1153.2l17.1-36.8c15.8,10.2,39.7,17.1,61.4,17.1c23.6,0,32.5-6.2,32.5-16.1
		c0-28.9-106.7,0.7-106.7-69.9c0-33.5,30.2-57.1,81.8-57.1c24.3,0,51.2,5.6,68,15.4l-17.1,36.4c-17.4-9.8-34.8-13.1-50.9-13.1
		c-23,0-32.8,7.2-32.8,16.4c0,30.2,106.7,1,106.7,70.6c0,32.8-30.5,56.1-83.4,56.1C3163.8,1172.2,3133.6,1164,3117.2,1153.2z"/>
	<path id="A_00000104682397034085961610000005936993339749073570_" class="st0" d="M3481.3,1068.8v100.8h-47.9v-22
		c-9.5,16.1-27.9,24.6-53.8,24.6c-41.4,0-66-23-66-53.5c0-31.2,22-52.9,75.8-52.9h40.7c0-22-13.1-34.8-40.7-34.8
		c-18.7,0-38.1,6.2-50.9,16.4l-18.4-35.8c19.4-13.8,47.9-21.3,76.2-21.3C3450.1,990.3,3481.3,1015.3,3481.3,1068.8z M3430.1,1113.8
		v-18.1h-35.1c-24,0-31.5,8.9-31.5,20.7c0,12.8,10.8,21.3,28.9,21.3C3409.4,1137.7,3424.2,1129.8,3430.1,1113.8z"/>
	<path id="R" class="st0" d="M3653.7,990.3v47.3c-4.3-0.3-7.6-0.7-11.5-0.7c-28.2,0-47,15.4-47,49.3v83.4H3544V992.9h48.9v23.3
		C3605.4,999.2,3626.4,990.3,3653.7,990.3z"/>
	<path id="A" class="st0" d="M3855.9,1068.8v100.8H3808v-22c-9.5,16.1-27.9,24.6-53.8,24.6c-41.4,0-66-23-66-53.5
		c0-31.2,22-52.9,75.8-52.9h40.7c0-22-13.1-34.8-40.7-34.8c-18.7,0-38.1,6.2-50.9,16.4l-18.4-35.8c19.4-13.8,47.9-21.3,76.2-21.3
		C3824.7,990.3,3855.9,1015.3,3855.9,1068.8z M3804.7,1113.8v-18.1h-35.1c-24,0-31.5,8.9-31.5,20.7c0,12.8,10.8,21.3,28.9,21.3
		C3784,1137.7,3798.8,1129.8,3804.7,1113.8z"/>
	<path id="T" class="st0" d="M4032.5,1161c-10.5,7.6-25.9,11.2-41.7,11.2c-41.7,0-66-21.3-66-63.4v-72.6h-27.3v-39.4h27.3v-43h51.2
		v43h44v39.4h-44v71.9c0,15.1,8.2,23.3,22,23.3c7.6,0,15.1-2.3,20.7-6.6L4032.5,1161z"/>
	<path id="H" class="st0" d="M4258.4,1068.4v101.1h-51.2v-93.2c0-28.6-13.1-41.7-35.8-41.7c-24.6,0-42.4,15.1-42.4,47.6v87.3h-51.2
		V926h51.2v85.4c13.8-13.8,33.5-21,56.1-21C4226.9,990.3,4258.4,1014.6,4258.4,1068.4z"/>
	<path id="Y" class="st0" d="M4493.2,992.9l-79.8,187.5c-17.1,42.7-41.4,55.5-73.2,55.5c-18.1,0-37.8-5.9-49.3-16.1l18.7-36.4
		c7.9,6.9,18.7,11.2,28.9,11.2c14.1,0,22-6.2,28.9-22l0.7-1.6l-76.5-178h52.9l49.6,119.8l49.9-119.8H4493.2z"/>
</g>
<g id="MANIRAJ">
	<path id="M" class="st0" d="M2017.1,882l-0.8-344.7l-169.1,284h-59.9L1619,544.6V882h-124.8V307.4h110l215.1,357.1L2031,307.4
		h109.2l1.6,574.6H2017.1z"/>
	<path id="A_00000076592984272074766080000015953710531329988014_" class="st0" d="M2700.8,630v252H2581v-55
		c-23.8,40.2-69.8,61.6-134.6,61.6c-103.4,0-165-57.5-165-133.8c0-78,55-132.2,189.6-132.2h101.8c0-55-32.8-87-101.8-87
		c-46.8,0-95.2,15.6-127.2,41l-46-89.5c48.4-34.5,119.8-53.4,190.4-53.4C2622.8,433.8,2700.8,496.2,2700.8,630z M2572.8,742.4v-45.1
		h-87.8c-59.9,0-78.8,22.2-78.8,51.7c0,32,27.1,53.4,72.2,53.4C2521,802.3,2558,782.6,2572.8,742.4z"/>
	<path id="N" class="st0" d="M3309,629.2V882h-128V648.8c0-71.4-32.8-104.2-89.5-104.2c-61.6,0-105.9,37.8-105.9,119V882h-128V440.4
		h122.3v51.7c34.5-37.8,86.2-58.3,146.1-58.3C3230.2,433.8,3309,494.5,3309,629.2z"/>
	<path id="I" class="st0" d="M3450.2,307.4c0-40.2,32-71.4,79.6-71.4s79.6,29.5,79.6,68.9c0,42.7-32,73.9-79.6,73.9
		S3450.2,347.6,3450.2,307.4z M3465.8,440.4h128V882h-128V440.4z"/>
	<path id="R_00000114054420441268418150000011832989917182777218_" class="st0" d="M4028,433.8V552c-10.7-0.8-18.9-1.6-28.7-1.6
		c-70.6,0-117.4,38.6-117.4,123.1V882h-128V440.4h122.3v58.3C3907.4,456,3959.9,433.8,4028,433.8z"/>
	<path id="A_00000047740656820087048680000014956466243072492705_" class="st0" d="M4533.7,630v252h-119.8v-55
		c-23.8,40.2-69.8,61.6-134.6,61.6c-103.4,0-165-57.5-165-133.8c0-78,55-132.2,189.6-132.2h101.8c0-55-32.8-87-101.8-87
		c-46.8,0-95.2,15.6-127.2,41l-46-89.5c48.4-34.5,119.8-53.4,190.4-53.4C4455.7,433.8,4533.7,496.2,4533.7,630z M4405.6,742.4v-45.1
		h-87.8c-59.9,0-78.8,22.2-78.8,51.7c0,32,27.1,53.4,72.2,53.4C4353.9,802.3,4390.8,782.6,4405.6,742.4z"/>
	<path id="J" class="st0" d="M4555,1023.1l34.5-92.8c14,9.8,32.8,15.6,54.2,15.6c32,0,52.5-20.5,52.5-64V440.4h128v440.8
		c0,101.8-59.9,166.6-166.6,166.6C4618.2,1047.8,4579.6,1040.4,4555,1023.1z M4680.6,307.4c0-40.2,32-71.4,79.6-71.4
		c47.6,0,79.6,29.5,79.6,68.9c0,42.7-32,73.9-79.6,73.9C4712.6,378.8,4680.6,347.6,4680.6,307.4z"/>
</g>
<g id="Logo">
	<path class="st1" d="M1218.7,388.7c-16.1-16.1-36.9-27.6-60.1-32.3L611.1,243.1l-3.1-0.7c-20.3-4.2-41.4-6.4-62.9-6.4
		c-170.7,0-309,138.3-309,309v382c0,170.7,138.3,309,309,309c83.1,0,158.6-32.8,214.1-86.2l0,0l3.8-3.7l0.5-0.5l453.1-442.1
		c22.6-21.5,36.6-51.8,36.6-85.5V472.1C1253.3,439.5,1240.1,410,1218.7,388.7z M736.1,854.1c0,105.5-85.5,191-191,191
		c-105.5,0-191-85.5-191-191V618c0-105.5,85.5-191,191-191c52.7,0,100.5,21.4,135,55.9s55.9,82.3,55.9,135V854.1z M1017.2,691
		c0,65.2-52.8,118-118,118s-118-52.9-118-118V545.1c0-65.2,52.8-118,118-118c32.6,0,62.1,13.2,83.5,34.6
		c21.4,21.4,34.6,50.9,34.6,83.5V691z M1208.2,590.2c0,40.3-32.7,73-72.9,73s-72.9-32.7-72.9-73V500c0-40.3,32.7-73,72.9-73
		c20.1,0,38.4,8.2,51.6,21.4c13.2,13.2,21.4,31.4,21.4,51.6V590.2z"/>
</g>
</svg>
