<?xml version="1.0" encoding="utf-8"?>
<!-- Generator: Adobe Illustrator 27.8.0, SVG Export Plug-In . SVG Version: 6.00 Build 0)  -->
<svg version="1.1" id="Layer_1" xmlns="http://www.w3.org/2000/svg" xmlns:xlink="http://www.w3.org/1999/xlink" x="0px" y="0px"
	 viewBox="0 0 675 1200" style="enable-background:new 0 0 675 1200;" xml:space="preserve">
<style type="text/css">
	.st0{fill:#FFFFFF;}
</style>
<g>
	<path d="M302.4,703.5c-1,9.7-2.2,19.4-3.5,29c-2,12.6-3.2,25.7-7.9,37.7c-0.7,1.6-1,3.3-1.3,5c-3.2,24.1-4.9,48.6-11.3,72.2
		c-7.3,28.3-20.7,58.3-47.6,72.8C192.6,936,158,963,122.5,984c-35.9,21.9-77,37.4-119.4,38.3c0,0,0-0.6,0-0.6
		c69.4-6.8,113.2-40.8,169.3-76.8c17.8-11.2,36.5-21.5,56.2-29.3c2.9-1.6,8.2-4.8,11.5-7.6c18.5-15.4,28.3-38.6,34.8-61.4
		c6.7-23.4,8.8-47.7,12.7-71.7c0.4-1.8,0.8-3.8,1.6-5.5c4.8-11.7,6.2-24.6,8.5-37c1.5-9.6,2.9-19.2,4.1-28.9
		C301.8,703.5,302.4,703.5,302.4,703.5L302.4,703.5z"/>
	<path d="M3.3,323.2c34.1-0.6,68.2-3.1,102-8c22.4-3.2,45.4-7.5,68.1-7.2c12,0.1,23.7,3.3,32.4,12c8.3,7.9,15.7,16.4,24.5,23.6
		c8.6,7.2,17.9,13.7,27.6,19.5c0,0,1.1,0.7,1.1,0.7l0,1.3c0.3,27.2,3.3,56.8,22.1,77.8c11.5,13,25.8,23.5,36.2,37.7
		c-0.2,1.4-1.6,9.6-1.8,11.2c-4.7,36.3-4.2,73.1-3,109.7c0.4,13.4,1.1,26.7,1.9,40.1c0,0-0.6,0.1-0.6,0.1c-1.8-13.3-3.1-26.6-4.2-40
		c-1.8-23.3-3-46.9-2.7-70.4c0.4-16.8,1.2-33.8,4.2-50.4c0,0,0.6,2.4,0.6,2.4c-13.7-17.8-34.3-30.6-44.9-51
		c-10.9-20.7-12.3-44.4-12.4-67.2c0,0,1.1,2,1.1,2c-9.7-6.1-19.2-12.8-27.9-20.3c-8.7-7.3-16.3-16.2-24.4-24.1
		c-8-8.1-18.7-11.1-29.9-11.4c-22.3-0.6-45.6,3.3-67.7,6.1c-33.9,4.3-68.2,6.3-102.3,6.3C3.3,323.8,3.3,323.2,3.3,323.2L3.3,323.2z"
		/>
	<path d="M323,594.8c-3.9-9.7,3.2-19.3,11.2-24.2c8.1-5.1,17.4-8,26.6-10.3c9.2-0.5,14,8.8,15.6,16.5c1.7,7.5,1.9,16,1.4,23.2
		c-0.2,12.2-0.9,24.3-1.8,36.5c-3,33.3-7,78.1-24.1,107.1c0,0,0.5-1.6,0.5-1.6c-0.1,4.2-0.9,8.1-1.8,11.9
		c-5.2,20.8-20.9,41.8-42.7,24.2c-6-5-10.9-11-15.1-17.4c0,0,0.5-0.4,0.5-0.4s3.8,4.3,3.8,4.3s3.9,4.1,3.9,4.1
		c10.5,10.3,24.9,18.9,35.5,3.7c6-8.7,9.3-19.9,9.7-30.4c0,0,0-0.9,0-0.9c3.2-5.2,5.7-10.9,7.9-16.7c10.4-28.3,14.6-58.4,17.7-88.3
		c1.2-12.1,2.1-24.2,2.5-36.3c0.7-7.4,0.6-15.1-0.8-22.4c-1.3-7.1-5.1-14.8-12.4-14.9c-9.1,1.9-18.3,4.5-26.3,9.3
		c-7.8,4.4-14.9,13.5-11.4,22.7C323.5,594.6,323,594.8,323,594.8L323,594.8z"/>
	<path d="M319.2,632.3c7.4-11.4,15.3-22.5,23.7-33.2c6-7.4,11.7-16.3,21.1-20c0.2-0.1,0.7-0.2,1-0.2c1.4-0.3,3.3,0.5,3.9,1.9
		c1,2.1,0.1,4.4-0.6,6.4c-0.7,1.7-1.5,3.2-2.4,4.7l-0.6-0.2c0.1-2.9,0.8-5.9,0-8.7c-0.2-0.1,0,0.3,0.1,0.3c0.2,0.1,0.2,0.2,0.4,0.2
		c0,0.1,0.1,0,0,0.1c-4.5,3.1-8,7.8-12.1,11.5c-7.3,7-13.9,14.7-20.6,22.3c-4.5,5.1-8.9,10.2-13.3,15.4
		C319.7,632.7,319.2,632.3,319.2,632.3L319.2,632.3z"/>
	<path d="M310.2,703.3c5.3-8.7,11.4-17.1,14.3-27c2.3-9.7-0.5-19.6-1.5-29.4c0,0,0.6-0.2,0.6-0.2c1.8,2.1,3.3,4.3,4.5,6.7
		c2.6,4.9,3.9,10.6,3.2,16.2c-1.3,8.2-5.4,15.6-10.4,22c-3.3,4.1-6.6,8.1-10.2,12C310.7,703.7,310.2,703.3,310.2,703.3L310.2,703.3z
		"/>
	<path d="M358.3,595.4c5.4,19.4,8.3,39.4,7.9,59.5c-0.2,15.3-2.6,31.2-11.7,44c-3,4.2-6.6,8-10.8,10.9c0,0-0.4-0.4-0.4-0.4
		c6-8.1,10.1-16.8,12.6-26.1c2.6-9.3,4.7-18.9,5.6-28.6c1.5-19.7-0.1-39.7-3.7-59.1C357.7,595.5,358.3,595.4,358.3,595.4
		L358.3,595.4z"/>
	<path d="M412.7,309.7c-9.5,45.5-19.8,90.9-30.8,136c-8.1,33.9-16.6,67.9-28.8,100.7c-4.1,10.7-8.4,22.1-14.5,31.9
		c0,0-0.5-0.3-0.5-0.3c12.6-32.4,19.7-66.7,29.7-99.9c9.7-33.5,18.5-67.2,27.2-100.9c5.8-22.5,11.5-45,17.1-67.6
		C412.1,309.5,412.7,309.7,412.7,309.7L412.7,309.7z"/>
	<path d="M436.9,182.2c1,12.3-10.5,23.8-19.7,30.5c-1.8,1.2-3.6,2.7-5.4,3.9c-5,3.2-10.5,5.4-16.2,6.8c-2.9,0.7-5.8,1.2-8.7,1.4
		c0,0-0.2-0.6-0.2-0.6c2.4-1.8,4.8-3.4,7.3-4.8c6-3.7,12.3-6.8,18.6-10c4.9-2.5,9.6-5.9,13.6-9.6c0,0,1.5-1.4,1.5-1.4l1.4-1.5
		c2.3-2.5,4.4-5.5,5.7-8.6c0.8-1.9,1.5-4,1.5-6C436.3,182.3,436.9,182.2,436.9,182.2L436.9,182.2z"/>
	<path d="M423.2,216.8c3.3,5.5-6,13.7-9.9,16.8c-1.8,1.5-4,3.4-6,4.6c-3.8,2-7.8,3.3-12.2,3.3c0,0-0.3-0.5-0.3-0.5
		c3.3-4.2,6.9-7,11.4-9.2c3.6-1.5,7.1-3.6,10.3-5.8c2.4-1.8,7.1-5.2,6.2-8.7C422.7,217.2,423.2,216.8,423.2,216.8L423.2,216.8z"/>
	<path d="M433.6,315.5c-20.4,5.7-32.3-10.2-35.2-28.6c-2-10.5-2.3-21.3-0.4-31.8c1.1-6.3,2.7-12.4,5-18.3c0,0,0.6,0.1,0.6,0.1
		c0.2,8.4-0.3,16.6-0.5,24.9c-0.1,5.8-0.7,15.6-0.3,21.3c0.9,14.9,7.2,31.6,24.4,32.2c2,0.1,4.1,0,6.1-0.4
		C433.5,314.9,433.6,315.5,433.6,315.5L433.6,315.5z"/>
	<path d="M363.9,182c5.2-4.1,11-8,14.8-13.5c3.2-6,6.6-11.9,11-17.1c0,0,1.6,1.5,1.6,1.5c-5.5,5.5-11.6,10.7-18.6,14.6
		c-17.7,9.8-33.4,2.7-38.1-16.9c-1.9-8.1-1.6-16.6,1.6-24.4c0,0,0.2,2.4,0.2,2.4c-12.3-16.9-28.3-30.7-46.4-41
		c-13.6-7.7-28.6-13.1-43.9-16.2c-5.2-1-10.4-1.8-15.7-2.1c0,0,0-0.6,0-0.6c32.3-2.2,65.3,10.5,89,32.4c8.3,7.8,15.5,16.5,21.8,25.8
		c0,0-0.6,1.3-0.6,1.3c-5.4,12.1-3.2,32,9.7,38.6c13.9,6,29.5-6.5,39.5-15.5c0,0,1.6,1.5,1.6,1.5c-2.2,2.6-4.3,5.1-6.2,7.9
		c-2,2.8-3.4,5.8-5.3,8.7c-2,2.9-4.7,5.1-7.4,7.2c-2.7,2.1-5.5,4.1-8.2,6C364.2,182.5,363.9,182,363.9,182L363.9,182z"/>
	<path d="M411.5,232.1c-17.5-8.3-39.9-31.9-21.3-50c0,0,0.5,0.3,0.5,0.3c-0.5,2.6-1.1,5-1.3,7.3c-0.7,6.8,0.1,13.7,2.9,20
		c4.4,8.8,11.6,15.9,19.4,21.8C411.8,231.6,411.5,232.1,411.5,232.1L411.5,232.1z"/>
	<path d="M177.8,462c-32.9,3-83.6,8-116.9,11.2l-3.5,0.3c4.2,8.8,10,16.6,18,22.2c4.3,3,9.5,5.4,14.8,6.3c3.2,0.7,6.7,0.7,9.8,0.4
		c7.2-0.8,16.8-3.2,23.9-4.7c7.8-1.7,15.5-3.1,23.4-4c27.5-3.4,55.7-0.4,82.7,6.2c1.5,0.4,4.5,1.1,6,1.5c2.2,0.5,4.2,0.8,6,1.3
		C220.5,489.5,199.3,475.5,177.8,462z M171,486.9c-20.3-0.9-40.6,2.4-60.2,7.4c-5.9,1.3-11.7,2.8-17.6,2.4c-1.5-0.3-3.3-0.4-4.7-0.9
		c-9.8-2.5-17.9-9.8-23.3-18.3c-1.3,0.2-2.5,0.3-3.7,0.4l1.9-3.4c0.6,1,1.2,2,1.8,3c32.7-3.8,80.8-9.3,112.1-13
		c-0.1-0.1-0.3-0.2-0.4-0.2l0.8,0.2c-0.1,0-0.3,0-0.4,0c21.3,12.7,42.8,24.9,64.2,37.9C219.1,493.1,195.2,487.9,171,486.9z"/>
	<path d="M221.1,556.4c-20-13.3-42.8-23.1-66.6-26.3c-19.1-2.2-38.6,0.9-56.2,8.7c-1.3,0.7-4.8,2.3-6.1,3c-1.9,1.1-4,2.3-6,3.3
		c0,0-0.4-0.5-0.4-0.5c1.1-1.1,2.2-2.1,3.4-3.1c1.9-1.8,5.2-4.1,7.3-5.7c6.6-4.2,13.8-7.6,21.3-9.6c24.3-6.3,50.2,0.4,72.4,10.6
		c11,5.3,21.6,11.6,31.2,19.2C221.5,556,221.1,556.4,221.1,556.4L221.1,556.4z"/>
	<path d="M218.1,565.5c-20.7-12.7-43.7-22.8-68-25.4c-19.2-1.9-39.1,3.3-53.9,15.8c-1.7,1.4-3.4,3.1-5.1,4.6c-1.5,1.6-3.2,3.4-4.8,5
		c0,0-0.5-0.3-0.5-0.3c0.8-1.4,1.5-2.7,2.3-4.1l1.2-2l1.4-1.9c23.4-31.8,64-25.2,95.6-10.9c11.2,5.2,22.1,11.4,32,18.8
		C218.4,565,218.1,565.5,218.1,565.5L218.1,565.5z"/>
	<path d="M95.2,561.2c16.1,0.3,32.3,0.4,48.4,0.1c8.1-0.1,16.1-0.9,24.1-0.7c8,0.1,16,0.3,24.2,0.6c0,0,0.1,0.6,0.1,0.6
		c-3.8,1.5-7.8,2.5-11.9,3.3c-8,1.4-16.2,2.1-24.4,1.8c0,0-12.2-0.7-12.2-0.7c-8.1-0.4-16.2-1-24.2-1.7c-8.1-0.8-16.1-1.6-24.1-2.7
		C95.1,561.8,95.2,561.2,95.2,561.2L95.2,561.2z"/>
	<g>
		<path class="st0" d="M175.4,543.6c0,0-5.5,20.8-28.9,20.2s-31.2-22.4-31.2-22.4S139.3,532.6,175.4,543.6z"/>
		<path d="M153.3,536.4c-13.8-2.5-28.4-1.9-41.6,3.4c0.7,1.8,1.5,3.6,2.4,5.3c3.7,6.8,9.3,12.7,16.1,16.2c2.3,1.2,4.6,2.1,7.1,2.8
			c8.7,2.2,18.6,1.4,26.2-3.6c0.3-0.2,0.6-0.4,0.9-0.6c5-3.6,8.7-8.8,10.7-14.6c0.1-0.4,0.2-0.7,0.3-1.1c0.1-0.3,0.2-0.5,0.1-0.8
			C168.6,540.1,161,537.7,153.3,536.4z M117.8,540.5c0,0,0,0.1,0.1,0.1c0.3,0.9,0.7,1.8,1.1,2.7c0.4-0.1,0.7-0.2,1.1-0.2
			c14.3-2.8,29-2.3,43.6-0.7c3.8,0.4,7.7,0.9,11.4,1.4c-0.1,0-0.1-0.1-0.1,0.1c-0.2,0.5-0.3,0.9-0.5,1.3c-1,2.4-2.4,4.7-4,6.8
			c-3.3,4.3-7.6,7.2-12.4,8.8c-3.6,1.2-7.6,1.7-11.6,1.4c-0.8-0.1-2.7-0.3-3.5-0.4c-0.7-0.1-1.4-0.3-2.1-0.4
			c-0.8-0.2-1.6-0.4-2.4-0.6c-8.5-2.7-15.5-9.3-19.3-17.3c0,0,0-0.1,0-0.1c-0.9,0.2-1.7,0.4-2.6,0.6c-0.1,0-0.1,0-0.2,0l0.1-0.2
			l1.4-3L117.8,540.5z"/>
	</g>
	<path d="M68.7,742.5c14.5-1.7,26.4-11,26.5-26.3c0.2-7.7-2.5-15.3-4.3-22.7c-1.6-6.1-3.6-11.9-5.1-18.2c0,0,0.5-0.3,0.5-0.3
		c4.1,5,7.4,10.6,9.9,16.6c1.7,4.3,3.1,8.9,3.6,13.5c1.3,11.2-0.7,24.3-10.3,31.4c-6,4.5-13.5,6.6-20.9,6.5
		C68.7,743.1,68.7,742.5,68.7,742.5L68.7,742.5z"/>
	<path d="M76.9,728.7c-10.3-2.6-22-2.2-31.2,3.6c0,0-5.2,3.3-5.2,3.3c-3.5,2.2-6.9,4.8-10.8,7.4c0,0-0.5-0.3-0.5-0.3
		c2-6.8,7.2-12.9,13.9-15.7c6.6-2.6,13.9-3.7,20.9-2.7c4.6,0.7,9,1.8,13.1,3.9C77.1,728.1,76.9,728.7,76.9,728.7L76.9,728.7z"/>
	<path d="M1.6,749.4c1.5,0.3,3.4-0.5,4.8-1.2c1.6-0.8,3.1-1.7,4.7-2.6c1.5-0.9,2.8-2.4,4.6-2.8c1.8-0.5,3.7-0.8,6.1-0.3L22,743
		c-0.8,2.3-2.1,3.9-3.6,5.1c-1.5,1.3-3.6,1.4-5.5,1.9c-2.9,0.8-5.9,1.3-8.8,1c-1-0.2-2.1-0.3-2.9-1.3L1.6,749.4L1.6,749.4z"/>
	<path d="M127.5,817.8c-24.5-6.4-47.5-18.1-72.4-22.7c-14.5-2.7-29.6-4.5-43.3,2.2c0,0-0.3-0.5-0.3-0.5c7.6-7.5,19-10.1,29.4-9.9
		c10.5,0.2,20.6,3.5,30.3,7c19.3,6.8,37.4,16.2,56.5,23.2C127.7,817.3,127.5,817.8,127.5,817.8L127.5,817.8z"/>
	<path d="M86.1,823.9c-14.2,0.2-28.2,2-42.2,4c-14.1,2.5-28,4.7-42.4,3.6c0,0-0.1-0.6-0.1-0.6c3.4-1.4,6.8-2.5,10.3-3.4
		c6.9-1.8,13.9-3.2,21-3.7c0,0,10.7-0.7,10.7-0.7c14.2-1,28.6-1.4,42.8,0.2C86.1,823.3,86.1,823.9,86.1,823.9L86.1,823.9z"/>
	<path d="M115.6,823.5C103.1,849,77.2,865,51.1,874c-7.9,2.7-16.4,4.3-24.7,5.2c-8.3,0.8-16.8,0.8-25.1-0.1c0,0,0-0.6,0-0.6
		c5.4-1.1,10.9-2,16.3-3c13.3-2.6,26.6-5.5,39.6-9.5c18-5.9,35-15.7,48-29.7c3.7-4,7.2-8.3,9.8-13.1
		C115,823.2,115.6,823.5,115.6,823.5L115.6,823.5z"/>
	<path d="M238.2,912.8c-2.6,23.8-5.8,50.6-8.5,74.5c-3.6,32.8-5.8,66.7,2.1,99c2.2,8,5.2,15.8,10.1,22.5c0,0-0.5,0.4-0.5,0.4
		c-5.3-6.6-8.8-14.4-11.4-22.4c-7.5-24.2-8-49.9-7.5-75c0.5-21,2.2-41.9,6.2-62.5c2.4-12.4,5.1-24.6,8.9-36.7
		C237.6,912.7,238.2,912.8,238.2,912.8L238.2,912.8z"/>
	<path d="M278,79.4c-17.9,1.2-18.9-16.5-31.7-23.8c-10.8-6.2-26.6-8.5-37.1-1c0,0-2,1.5-2,1.5s-1.5-2.2-1.5-2.2
		c-5-7.1-12.1-12.7-19.6-17c-7.5-4.2-15.9-7.6-24.4-8.2c-9-0.4-18.1,0.1-27.2,0c-9.3-0.1-18.9-0.9-27.8-3.9
		C89.1,19.1,74.1,7.9,56.2,4.4C38.5,1,20.2,6,3.3,11.7C20,4.1,38.2-2,56.9,0.6C75.2,3.2,91,14.2,108.3,19.4
		c8.5,2.6,17.3,3.4,26.2,3.4c21.4-0.1,34.8-2.7,54.4,9.3c8.1,4.9,15.6,11,20.9,19.1c0,0-3.5-0.6-3.5-0.6c12.6-8.3,29.7-5.4,41.7,2.4
		c6.1,3.9,9.8,10.4,13.5,16.3C265,75.4,270.7,79.2,278,79.4L278,79.4z"/>
	<path d="M478.7,1200c-43.5-28.2-89.8-52.1-137.3-72.7c-20-8.7-42.7-12.4-61.6-23.1c-11.3-6-16.4-17.8-24.4-27.4
		c-4.3-4.9-9.1-8.9-14.1-13c-4.5-3.6-9.3-6.8-14.3-9.7c-0.5-0.3-1-0.6-1.5-0.9c0.5,0.4,1,0.7,1.5,1.1c7.1,5.2,13.8,11,19.9,17.3
		c6.9,6.6,11.1,14.7,16.4,22.8c6.9,11.3,19.5,17.6,31.3,22.3c11.7,4.7,24,8.2,35.8,12.5c5.2,1.9,12.1,5.1,17.2,7.3
		c44.2,19.4,87.2,41,129.9,63.4H478.7z"/>
	<path d="M276.7,1200h-1.6c3.3-46.5-10.8-93.2-39.6-130.1C270.8,1101.6,286.9,1153.7,276.7,1200z"/>
</g>
</svg>
