<?xml version="1.0" encoding="utf-8"?>
<!-- Generator: Adobe Illustrator 27.8.0, SVG Export Plug-In . SVG Version: 6.00 Build 0)  -->
<svg version="1.1" xmlns="http://www.w3.org/2000/svg" xmlns:xlink="http://www.w3.org/1999/xlink" x="0px" y="0px"
	 viewBox="0 0 922 360" style="enable-background:new 0 0 922 360;" xml:space="preserve">
<style type="text/css">
	.st0{fill:#4D4D4D;}
</style>
<g id="Layer_1">
</g>
<g id="Layer_2">
	<g>
		<g>
			<path class="st0" d="M216.3,80.9c57.5,0,104.3,46.8,104.3,104.3s-46.8,104.3-104.3,104.3s-104.3-46.8-104.3-104.3
				S158.7,80.9,216.3,80.9 M216.3,50.9c-74.2,0-134.3,60.1-134.3,134.3s60.1,134.3,134.3,134.3s134.3-60.1,134.3-134.3
				S290.5,50.9,216.3,50.9L216.3,50.9z"/>
		</g>
		<path class="st0" d="M835.6,185.3c0,30.9-12.6,58.9-33,79.3c-20.3,20.3-48.4,33-79.3,33H302.1c33.7-25.8,55.5-66.5,55.5-112.2
			S335.8,98.9,302.1,73h421.2C785.1,73,835.6,123.5,835.6,185.3z"/>
	</g>
</g>
</svg>
