<?xml version="1.0" encoding="utf-8"?>
<!-- Generator: Adobe Illustrator 27.8.0, SVG Export Plug-In . SVG Version: 6.00 Build 0)  -->
<svg version="1.1" id="Logo" xmlns="http://www.w3.org/2000/svg" xmlns:xlink="http://www.w3.org/1999/xlink" x="0px" y="0px"
	 viewBox="0 0 4603.8 1000.1" style="enable-background:new 0 0 4603.8 1000.1;" xml:space="preserve">
<style type="text/css">
	.st0{fill:#333333;}
</style>
<g id="G_PARTHASARATHY">
	<path id="G" class="st0" d="M1423,815.1h48.6v93.2c-25.3,19-60.1,29.2-92.9,29.2c-72.2,0-125.4-49.6-125.4-118.9
		s53.2-118.9,126.4-118.9c40.4,0,73.9,13.8,96.2,39.7l-34.2,31.5c-16.7-17.7-36.1-25.9-59.4-25.9c-44.7,0-75.2,29.9-75.2,73.5
		s30.5,73.5,74.5,73.5c14.4,0,27.9-2.6,41.4-9.8L1423,815.1L1423,815.1z"/>
	<path id="P" class="st0" d="M1845.9,787.2c0,51.2-38.4,83.1-99.8,83.1h-46.3v63.4h-53.2V703.8h99.5
		C1807.5,703.8,1845.9,735.6,1845.9,787.2L1845.9,787.2z M1792.1,787.2c0-25.3-16.4-40.1-48.9-40.1h-43.3v79.8h43.3
		C1775.7,826.9,1792.1,812.1,1792.1,787.2L1792.1,787.2z"/>
	<path id="A" class="st0" d="M2051.1,832.8v100.8h-47.9v-22c-9.5,16.1-27.9,24.6-53.8,24.6c-41.4,0-66-23-66-53.5s22-52.9,75.8-52.9
		h40.7c0-22-13.1-34.8-40.7-34.8c-18.7,0-38.1,6.2-50.9,16.4l-18.4-35.8c19.4-13.8,47.9-21.3,76.2-21.3
		C2019.9,754.3,2051.1,779.3,2051.1,832.8L2051.1,832.8z M1999.9,877.8v-18.1h-35.1c-24,0-31.5,8.9-31.5,20.7
		c0,12.8,10.8,21.3,28.9,21.3C1979.2,901.7,1994,893.9,1999.9,877.8L1999.9,877.8z"/>
	<path id="R" class="st0" d="M2223.5,754.3v47.3c-4.3-0.3-7.6-0.7-11.5-0.7c-28.2,0-46.9,15.4-46.9,49.2v83.4h-51.2V757h48.9v23.3
		C2175.2,763.2,2196.2,754.3,2223.5,754.3z"/>
	<path id="T" class="st0" d="M2390.6,925.1c-10.5,7.5-25.9,11.2-41.7,11.2c-41.7,0-66-21.3-66-63.4v-72.6h-27.2v-39.4h27.2v-43h51.2
		v43h44v39.4h-44v71.9c0,15.1,8.2,23.3,22,23.3c7.6,0,15.1-2.3,20.7-6.6L2390.6,925.1L2390.6,925.1z"/>
	<path id="H" class="st0" d="M2616.5,832.5v101.1h-51.2v-93.2c0-28.6-13.1-41.7-35.8-41.7c-24.6,0-42.4,15.1-42.4,47.6v87.3h-51.2
		V690h51.2v85.4c13.8-13.8,33.5-21,56.1-21C2585,754.3,2616.5,778.6,2616.5,832.5L2616.5,832.5z"/>
	<path id="A-2" class="st0" d="M2835.5,832.8v100.8h-47.9v-22c-9.5,16.1-27.9,24.6-53.9,24.6c-41.4,0-66-23-66-53.5
		s22-52.9,75.9-52.9h40.7c0-22-13.1-34.8-40.7-34.8c-18.7,0-38.1,6.2-50.9,16.4l-18.4-35.8c19.4-13.8,47.9-21.3,76.2-21.3
		C2804.3,754.3,2835.5,779.3,2835.5,832.8L2835.5,832.8z M2784.3,877.8v-18.1h-35.1c-24,0-31.5,8.9-31.5,20.7
		c0,12.8,10.8,21.3,28.9,21.3C2763.6,901.7,2778.4,893.9,2784.3,877.8L2784.3,877.8z"/>
	<path id="S" class="st0" d="M2881.1,917.2l17.1-36.8c15.8,10.2,39.7,17.1,61.4,17.1c23.6,0,32.5-6.2,32.5-16.1
		c0-28.9-106.7,0.7-106.7-69.9c0-33.5,30.2-57.1,81.8-57.1c24.3,0,51.2,5.6,68,15.4l-17.1,36.4c-17.4-9.8-34.8-13.1-50.9-13.1
		c-23,0-32.8,7.2-32.8,16.4c0,30.2,106.7,1,106.7,70.6c0,32.8-30.5,56.1-83.4,56.1C2927.7,936.2,2897.5,928,2881.1,917.2
		L2881.1,917.2z"/>
	<path id="A-3" class="st0" d="M3245.2,832.8v100.8h-47.9v-22c-9.5,16.1-27.9,24.6-53.9,24.6c-41.4,0-66-23-66-53.5
		s22-52.9,75.9-52.9h40.7c0-22-13.1-34.8-40.7-34.8c-18.7,0-38.1,6.2-50.9,16.4l-18.4-35.8c19.4-13.8,47.9-21.3,76.2-21.3
		C3214,754.3,3245.2,779.3,3245.2,832.8L3245.2,832.8z M3194,877.8v-18.1h-35.1c-24,0-31.5,8.9-31.5,20.7
		c0,12.8,10.8,21.3,28.9,21.3C3173.3,901.7,3188.1,893.9,3194,877.8L3194,877.8z"/>
	<path id="R-2" class="st0" d="M3417.6,754.3v47.3c-4.3-0.3-7.6-0.7-11.5-0.7c-28.2,0-46.9,15.4-46.9,49.2v83.4h-51.2V757h48.9v23.3
		C3369.3,763.2,3390.3,754.3,3417.6,754.3z"/>
	<path id="A-4" class="st0" d="M3619.8,832.8v100.8h-47.9v-22c-9.5,16.1-27.9,24.6-53.9,24.6c-41.4,0-66-23-66-53.5
		s22-52.9,75.9-52.9h40.7c0-22-13.1-34.8-40.7-34.8c-18.7,0-38.1,6.2-50.9,16.4l-18.4-35.8c19.4-13.8,47.9-21.3,76.2-21.3
		C3588.7,754.3,3619.8,779.3,3619.8,832.8L3619.8,832.8z M3568.6,877.8v-18.1h-35.1c-24,0-31.5,8.9-31.5,20.7
		c0,12.8,10.8,21.3,28.9,21.3C3547.9,901.7,3562.7,893.9,3568.6,877.8L3568.6,877.8z"/>
	<path id="T-2" class="st0" d="M3796.5,925.1c-10.5,7.5-25.9,11.2-41.7,11.2c-41.7,0-66-21.3-66-63.4v-72.6h-27.2v-39.4h27.2v-43
		h51.2v43h44v39.4h-44v71.9c0,15.1,8.2,23.3,22,23.3c7.6,0,15.1-2.3,20.7-6.6L3796.5,925.1L3796.5,925.1z"/>
	<path id="H-2" class="st0" d="M4022.4,832.5v101.1h-51.2v-93.2c0-28.6-13.1-41.7-35.8-41.7c-24.6,0-42.4,15.1-42.4,47.6v87.3h-51.2
		V690h51.2v85.4c13.8-13.8,33.5-21,56.1-21C3990.8,754.3,4022.4,778.6,4022.4,832.5L4022.4,832.5z"/>
	<path id="Y" class="st0" d="M4257.1,757l-79.8,187.5c-17.1,42.7-41.4,55.5-73.2,55.5c-18.1,0-37.8-5.9-49.2-16.1l18.7-36.4
		c7.9,6.9,18.7,11.2,28.9,11.2c14.1,0,22-6.2,28.9-22l0.7-1.6l-76.5-178h52.9l49.6,119.8l49.9-119.8L4257.1,757L4257.1,757z"/>
</g>
<g id="MANIRAJ">
	<path id="M" class="st0" d="M1781,646l-0.8-344.7l-169.1,284h-59.9l-168.3-276.6V646h-124.8V71.4h110l215.1,357.1L1795,71.4h109.2
		l1.6,574.6L1781,646L1781,646z"/>
	<path id="A-5" class="st0" d="M2464.7,394v252h-119.8v-55c-23.8,40.2-69.8,61.6-134.6,61.6c-103.4,0-165-57.5-165-133.8
		s55-132.1,189.6-132.1h101.8c0-55-32.8-87-101.8-87c-46.8,0-95.2,15.6-127.2,41l-46-89.5c48.4-34.5,119.8-53.4,190.4-53.4
		C2386.8,197.8,2464.7,260.2,2464.7,394L2464.7,394z M2336.7,506.4v-45.1h-87.8c-59.9,0-78.8,22.2-78.8,51.7
		c0,32,27.1,53.3,72.2,53.3C2285,566.3,2321.9,546.6,2336.7,506.4L2336.7,506.4z"/>
	<path id="N" class="st0" d="M3072.9,393.2V646h-128.1V412.9c0-71.4-32.8-104.2-89.5-104.2c-61.6,0-105.9,37.8-105.9,119V646h-128.1
		V204.4h122.3v51.7c34.5-37.8,86.2-58.3,146.1-58.3C2994.1,197.8,3072.9,258.5,3072.9,393.2L3072.9,393.2z"/>
	<path id="I" class="st0" d="M3214.1,71.4c0-40.2,32-71.4,79.6-71.4s79.6,29.5,79.6,68.9c0,42.7-32,73.9-79.6,73.9
		S3214.1,111.6,3214.1,71.4z M3229.7,204.4h128.1V646h-128.1V204.4z"/>
	<path id="R-3" class="st0" d="M3792,197.8V316c-10.7-0.8-18.9-1.6-28.7-1.6c-70.6,0-117.4,38.6-117.4,123.1V646h-128.1V204.4h122.3
		v58.3C3671.3,220,3723.8,197.8,3792,197.8L3792,197.8z"/>
	<path id="A-6" class="st0" d="M4297.6,394v252h-119.8v-55c-23.8,40.2-69.8,61.6-134.6,61.6c-103.4,0-165-57.5-165-133.8
		s55-132.1,189.6-132.1h101.8c0-55-32.8-87-101.8-87c-46.8,0-95.2,15.6-127.2,41l-46-89.5c48.4-34.5,119.8-53.4,190.4-53.4
		C4219.6,197.8,4297.6,260.2,4297.6,394L4297.6,394z M4169.6,506.4v-45.1h-87.8c-59.9,0-78.8,22.2-78.8,51.7
		c0,32,27.1,53.3,72.2,53.3C4117.8,566.3,4154.8,546.6,4169.6,506.4L4169.6,506.4z"/>
	<path id="J" class="st0" d="M4318.9,787.2l34.5-92.8c14,9.8,32.8,15.6,54.2,15.6c32,0,52.5-20.5,52.5-64V204.4h128v440.8
		c0,101.8-59.9,166.6-166.6,166.6C4382.1,811.8,4343.5,804.4,4318.9,787.2L4318.9,787.2z M4444.5,71.4c0-40.2,32-71.4,79.6-71.4
		s79.6,29.5,79.6,68.9c0,42.7-32,73.9-79.6,73.9S4444.5,111.6,4444.5,71.4z"/>
</g>
</svg>
