<?xml version="1.0" encoding="UTF-8"?><svg id="Logo" xmlns="http://www.w3.org/2000/svg" viewBox="0 0 4603.75 1000.09"><defs><style>.cls-1{fill:#333;}.cls-1,.cls-2{stroke-width:0px;}.cls-2{fill:#ffc600;}</style></defs><g id="G_PARTHASARATHY"><path id="G" class="cls-1" d="m1423.04,815.07h48.59v93.25c-25.28,19.04-60.08,29.22-92.92,29.22-72.23,0-125.42-49.58-125.42-118.86s53.19-118.86,126.41-118.86c40.38,0,73.87,13.79,96.2,39.73l-34.15,31.52c-16.74-17.73-36.12-25.94-59.43-25.94-44.65,0-75.19,29.88-75.19,73.55s30.54,73.55,74.53,73.55c14.45,0,27.91-2.63,41.37-9.85v-67.31Z"/><path id="P" class="cls-1" d="m1845.92,787.16c0,51.22-38.41,83.07-99.81,83.07h-46.29v63.37h-53.19v-229.83h99.48c61.4,0,99.81,31.85,99.81,83.4Zm-53.85,0c0-25.28-16.42-40.06-48.92-40.06h-43.34v79.78h43.34c32.5,0,48.92-14.77,48.92-39.73Z"/><path id="A" class="cls-1" d="m2051.12,832.8v100.8h-47.94v-22c-9.52,16.09-27.91,24.62-53.85,24.62-41.37,0-65.99-22.98-65.99-53.52s22-52.86,75.85-52.86h40.71c0-22-13.13-34.8-40.71-34.8-18.71,0-38.09,6.24-50.89,16.42l-18.39-35.79c19.37-13.79,47.94-21.34,76.17-21.34,53.85,0,85.04,24.95,85.04,78.47Zm-51.22,44.98v-18.06h-35.13c-23.97,0-31.52,8.86-31.52,20.68,0,12.81,10.83,21.34,28.89,21.34,17.07,0,31.85-7.88,37.76-23.97Z"/><path id="R" class="cls-1" d="m2223.48,754.33v47.28c-4.27-.33-7.55-.66-11.49-.66-28.24,0-46.95,15.43-46.95,49.25v83.4h-51.22v-176.64h48.92v23.31c12.48-17.07,33.49-25.94,60.74-25.94Z"/><path id="T" class="cls-1" d="m2390.6,925.06c-10.51,7.55-25.94,11.16-41.7,11.16-41.7,0-65.99-21.34-65.99-63.37v-72.56h-27.25v-39.4h27.25v-43.01h51.22v43.01h44v39.4h-44v71.91c0,15.1,8.21,23.31,22,23.31,7.55,0,15.1-2.3,20.69-6.57l13.79,36.12Z"/><path id="H" class="cls-1" d="m2616.49,832.47v101.13h-51.22v-93.25c0-28.57-13.13-41.7-35.79-41.7-24.62,0-42.35,15.1-42.35,47.61v87.34h-51.22v-243.62h51.22v85.37c13.79-13.79,33.49-21.01,56.14-21.01,41.7,0,73.22,24.3,73.22,78.14Z"/><path id="A-2" class="cls-1" d="m2835.48,832.8v100.8h-47.94v-22c-9.52,16.09-27.91,24.62-53.85,24.62-41.37,0-65.99-22.98-65.99-53.52s22-52.86,75.85-52.86h40.71c0-22-13.13-34.8-40.71-34.8-18.71,0-38.09,6.24-50.89,16.42l-18.39-35.79c19.37-13.79,47.94-21.34,76.17-21.34,53.85,0,85.04,24.95,85.04,78.47Zm-51.22,44.98v-18.06h-35.13c-23.97,0-31.52,8.86-31.52,20.68,0,12.81,10.83,21.34,28.89,21.34,17.07,0,31.85-7.88,37.76-23.97Z"/><path id="S" class="cls-1" d="m2881.11,917.18l17.07-36.77c15.76,10.18,39.73,17.07,61.4,17.07,23.64,0,32.51-6.24,32.51-16.09,0-28.89-106.71.66-106.71-69.93,0-33.49,30.21-57.13,81.76-57.13,24.3,0,51.22,5.58,67.96,15.43l-17.07,36.44c-17.4-9.85-34.8-13.13-50.89-13.13-22.98,0-32.83,7.22-32.83,16.42,0,30.21,106.71.98,106.71,70.59,0,32.83-30.53,56.14-83.4,56.14-29.88,0-60.08-8.21-76.5-19.04Z"/><path id="A-3" class="cls-1" d="m3245.22,832.8v100.8h-47.94v-22c-9.52,16.09-27.91,24.62-53.85,24.62-41.37,0-65.99-22.98-65.99-53.52s22-52.86,75.85-52.86h40.71c0-22-13.13-34.8-40.71-34.8-18.71,0-38.09,6.24-50.89,16.42l-18.39-35.79c19.37-13.79,47.94-21.34,76.17-21.34,53.85,0,85.04,24.95,85.04,78.47Zm-51.22,44.98v-18.06h-35.13c-23.97,0-31.52,8.86-31.52,20.68,0,12.81,10.83,21.34,28.89,21.34,17.07,0,31.85-7.88,37.76-23.97Z"/><path id="R-2" class="cls-1" d="m3417.59,754.33v47.28c-4.27-.33-7.55-.66-11.49-.66-28.24,0-46.95,15.43-46.95,49.25v83.4h-51.22v-176.64h48.92v23.31c12.48-17.07,33.49-25.94,60.74-25.94Z"/><path id="A-4" class="cls-1" d="m3619.84,832.8v100.8h-47.94v-22c-9.52,16.09-27.91,24.62-53.85,24.62-41.37,0-65.99-22.98-65.99-53.52s22-52.86,75.85-52.86h40.71c0-22-13.13-34.8-40.71-34.8-18.71,0-38.09,6.24-50.89,16.42l-18.39-35.79c19.37-13.79,47.94-21.34,76.17-21.34,53.85,0,85.04,24.95,85.04,78.47Zm-51.22,44.98v-18.06h-35.13c-23.97,0-31.52,8.86-31.52,20.68,0,12.81,10.83,21.34,28.89,21.34,17.07,0,31.85-7.88,37.76-23.97Z"/><path id="T-2" class="cls-1" d="m3796.47,925.06c-10.51,7.55-25.94,11.16-41.7,11.16-41.7,0-65.99-21.34-65.99-63.37v-72.56h-27.25v-39.4h27.25v-43.01h51.22v43.01h44v39.4h-44v71.91c0,15.1,8.21,23.31,22,23.31,7.55,0,15.1-2.3,20.69-6.57l13.79,36.12Z"/><path id="H-2" class="cls-1" d="m4022.36,832.47v101.13h-51.22v-93.25c0-28.57-13.13-41.7-35.79-41.7-24.62,0-42.35,15.1-42.35,47.61v87.34h-51.22v-243.62h51.22v85.37c13.79-13.79,33.49-21.01,56.14-21.01,41.7,0,73.22,24.3,73.22,78.14Z"/><path id="Y" class="cls-1" d="m4257.11,756.96l-79.78,187.48c-17.07,42.68-41.37,55.49-73.22,55.49-18.06,0-37.76-5.91-49.25-16.09l18.72-36.44c7.88,6.89,18.72,11.16,28.89,11.16,14.12,0,22-6.24,28.89-22l.66-1.64-76.5-177.96h52.86l49.58,119.84,49.91-119.84h49.25Z"/></g><g id="MANIRAJ"><path id="M" class="cls-1" d="m1781.01,645.99l-.82-344.74-169.09,284h-59.92l-168.27-276.62v337.36h-124.76V71.41h109.99l215.06,357.06,211.77-357.06h109.17l1.64,574.57h-124.77Z"/><path id="A-5" class="cls-1" d="m2464.74,393.99v251.99h-119.84v-54.99c-23.8,40.22-69.77,61.56-134.61,61.56-103.42,0-164.99-57.46-164.99-133.79s54.99-132.15,189.61-132.15h101.78c0-54.99-32.83-87.01-101.78-87.01-46.79,0-95.22,15.6-127.23,41.04l-45.97-89.47c48.43-34.47,119.84-53.35,190.43-53.35,134.62,0,212.59,62.38,212.59,196.18Zm-128.05,112.45v-45.15h-87.83c-59.92,0-78.8,22.16-78.8,51.71,0,32.01,27.09,53.35,72.23,53.35,42.68,0,79.62-19.7,94.39-59.92Z"/><path id="N" class="cls-1" d="m3072.95,393.17v252.81h-128.05v-233.11c0-71.41-32.83-104.24-89.47-104.24-61.56,0-105.89,37.76-105.89,119.02v218.34h-128.05V204.38h122.3v51.71c34.47-37.76,86.19-58.28,146.11-58.28,104.24,0,183.04,60.74,183.04,195.36Z"/><path id="I" class="cls-1" d="m3214.12,71.41c0-40.22,32.01-71.41,79.62-71.41s79.62,29.55,79.62,68.95c0,42.68-32.01,73.87-79.62,73.87s-79.62-31.19-79.62-71.41Zm15.59,132.97h128.05v441.6h-128.05V204.38Z"/><path id="R-3" class="cls-1" d="m3791.97,197.82v118.2c-10.67-.82-18.88-1.64-28.73-1.64-70.59,0-117.38,38.58-117.38,123.12v208.49h-128.05V204.38h122.3v58.28c31.19-42.68,83.72-64.85,151.85-64.85Z"/><path id="A-6" class="cls-1" d="m4297.6,393.99v251.99h-119.84v-54.99c-23.8,40.22-69.77,61.56-134.61,61.56-103.42,0-164.99-57.46-164.99-133.79s54.99-132.15,189.61-132.15h101.78c0-54.99-32.83-87.01-101.78-87.01-46.79,0-95.22,15.6-127.23,41.04l-45.97-89.47c48.43-34.47,119.84-53.35,190.43-53.35,134.62,0,212.59,62.38,212.59,196.18Zm-128.05,112.45v-45.15h-87.83c-59.92,0-78.8,22.16-78.8,51.71,0,32.01,27.09,53.35,72.23,53.35,42.68,0,79.62-19.7,94.39-59.92Z"/><path id="J" class="cls-1" d="m4318.93,787.17l34.47-92.75c13.95,9.85,32.83,15.6,54.17,15.6,32.01,0,52.53-20.52,52.53-64.02V204.38h128.05v440.78c0,101.78-59.92,166.63-166.63,166.63-39.4,0-77.98-7.39-102.6-24.63Zm125.59-715.76c0-40.22,32.01-71.41,79.62-71.41s79.62,29.55,79.62,68.95c0,42.68-32.01,73.87-79.62,73.87s-79.62-31.19-79.62-71.41Z"/></g><g id="Logo-2"><path class="cls-2" d="m982.65,152.69c-16.13-16.13-36.89-27.61-60.13-32.26L375.06,7.16l-3.12-.65C351.62,2.3,330.58.09,309.02.09,138.35.09,0,138.44,0,309.11v381.96c0,170.67,138.35,309.02,309.02,309.02,83.12,0,158.57-32.82,214.1-86.21l.04-.04,3.82-3.73.54-.53,453.09-442.07c22.56-21.5,36.61-51.84,36.61-85.45v-145.9c0-32.6-13.21-62.1-34.57-83.47Zm-482.65,465.43c0,105.48-85.51,190.99-190.98,190.99s-190.99-85.51-190.99-190.99v-236.07c0-105.47,85.51-190.98,190.99-190.98,52.73,0,100.48,21.38,135.04,55.94s55.94,82.31,55.94,135.04v236.07Zm281.15-163.12c0,65.19-52.84,118.04-118.03,118.04s-118.04-52.85-118.04-118.04v-145.89c0-65.19,52.85-118.04,118.04-118.04,32.59,0,62.1,13.21,83.46,34.57,21.36,21.36,34.57,50.88,34.57,83.47v145.89Zm190.99-100.81c0,40.29-32.66,72.95-72.95,72.95s-72.95-32.66-72.95-72.95v-90.17c0-40.29,32.66-72.95,72.95-72.95,20.14,0,38.38,8.17,51.58,21.37,13.2,13.2,21.37,31.44,21.37,51.58v90.17Z"/></g></svg>